first trial
nRows=4
nColumns=165

# SIMM Motion File Header:
name first trial
datacolumns 165
datarows 4
otherdata 1
range 3.13300000 3.18300000
endheader
time	pelvis_tx	pelvis_ty	pelvis_tz	pelvis_tilt	pelvis_list	pelvis_rotation	hip_flexion_r	hip_adduction_r	hip_rotation_r	knee_angle_r	ankle_angle_r	subtalar_angle_r	mtp_angle_r	hip_flexion_l	hip_adduction_l	hip_rotation_l	knee_angle_l	ankle_angle_l	subtalar_angle_l	mtp_angle_l	lumbar_extension	lumbar_bending	lumbar_rotation	R.ASIS_tx	R.ASIS_ty	R.ASIS_tz	L.ASIS_tx	L.ASIS_ty	L.ASIS_tz	V.Sacral_tx	V.Sacral_ty	V.Sacral_tz	R.Thigh.Upper_tx	R.Thigh.Upper_ty	R.Thigh.Upper_tz	R.Thigh.Front_tx	R.Thigh.Front_ty	R.Thigh.Front_tz	R.Thigh.Rear_tx	R.Thigh.Rear_ty	R.Thigh.Rear_tz	L.Thigh.Upper_tx	L.Thigh.Upper_ty	L.Thigh.Upper_tz	L.Thigh.Front_tx	L.Thigh.Front_ty	L.Thigh.Front_tz	L.Thigh.Rear_tx	L.Thigh.Rear_ty	L.Thigh.Rear_tz	R.Shank.Upper_tx	R.Shank.Upper_ty	R.Shank.Upper_tz	R.Shank.Front_tx	R.Shank.Front_ty	R.Shank.Front_tz	R.Shank.Rear_tx	R.Shank.Rear_ty	R.Shank.Rear_tz	L.Shank.Upper_tx	L.Shank.Upper_ty	L.Shank.Upper_tz	L.Shank.Front_tx	L.Shank.Front_ty	L.Shank.Front_tz	L.Shank.Rear_tx	L.Shank.Rear_ty	L.Shank.Rear_tz	R.Heel_tx	R.Heel_ty	R.Heel_tz	R.Midfoot.Sup_tx	R.Midfoot.Sup_ty	R.Midfoot.Sup_tz	R.Midfoot.Lat_tx	R.Midfoot.Lat_ty	R.Midfoot.Lat_tz	R.Toe.Tip_tx	R.Toe.Tip_ty	R.Toe.Tip_tz	L.Heel_tx	L.Heel_ty	L.Heel_tz	L.Midfoot.Sup_tx	L.Midfoot.Sup_ty	L.Midfoot.Sup_tz	L.Midfoot.Lat_tx	L.Midfoot.Lat_ty	L.Midfoot.Lat_tz	L.Toe.Tip_tx	L.Toe.Tip_ty	L.Toe.Tip_tz	Sternum_tx	Sternum_ty	Sternum_tz	R.Acromium_tx	R.Acromium_ty	R.Acromium_tz	L.Acromium_tx	L.Acromium_ty	L.Acromium_tz	R.Bicep_tx	R.Bicep_ty	R.Bicep_tz	L.Bicep_tx	L.Bicep_ty	L.Bicep_tz	R.Elbow_tx	R.Elbow_ty	R.Elbow_tz	L.Elbow_tx	L.Elbow_ty	L.Elbow_tz	R.Wrist.Med_tx	R.Wrist.Med_ty	R.Wrist.Med_tz	R.Wrist.Lat_tx	R.Wrist.Lat_ty	R.Wrist.Lat_tz	L.Wrist.Med_tx	L.Wrist.Med_ty	L.Wrist.Med_tz	L.Wrist.Lat_tx	L.Wrist.Lat_ty	L.Wrist.Lat_tz	R.Toe.Lat_tx	R.Toe.Lat_ty	R.Toe.Lat_tz	R.Toe.Med_tx	R.Toe.Med_ty	R.Toe.Med_tz	L.Toe.Lat_tx	L.Toe.Lat_ty	L.Toe.Lat_tz	L.Toe.Med_tx	L.Toe.Med_ty	L.Toe.Med_tz	R.Temple_tx	R.Temple_ty	R.Temple_tz	L.Temple_tx	L.Temple_ty	L.Temple_tz	Top.Head_tx	Top.Head_ty	Top.Head_tz	ground_force_vx	ground_force_vy	ground_force_vz	ground_force_px	ground_force_py	ground_force_pz	ground_force_vx	ground_force_vy	ground_force_vz	ground_force_px	ground_force_py	ground_force_pz	ground_torque_x	ground_torque_y	ground_torque_z	ground_torque_x	ground_torque_y	ground_torque_z
      3.13300000	      0.59042275	      1.00124430	     -0.00532575	      4.91487820	      0.52068889	      1.42634164	     21.84437322	     -1.84058329	     -1.70885675	    -14.30177096	     -0.59816562	     -0.00024428	      0.00000013	    -20.48552536	      2.28724694	     -1.92542240	    -16.78879493	     17.26197107	      0.00005519	      0.00000021	    -13.54328668	      2.21462489	     -8.48056599	      0.60965448	      1.04166663	      0.12362582	      0.61360095	      1.02667664	     -0.13663510	      0.41632227	      1.03227820	      0.00998683	      0.67590784	      0.74361694	      0.17332642	      0.75208203	      0.71011389	      0.07555474	      0.71690619	      0.62868005	      0.16149261	      0.48111929	      0.74363129	     -0.17960263	      0.56323499	      0.68161847	     -0.12133204	      0.44848950	      0.63941003	     -0.15839427	      0.71642841	      0.45148990	      0.15551045	      0.80164923	      0.43656741	      0.10057258	      0.75386975	      0.37239404	      0.16474625	      0.35308167	      0.44057672	     -0.14780840	      0.37430127	      0.37585461	     -0.09289989	      0.31568985	      0.41071323	     -0.15245619	      0.75694696	      0.06103115	      0.09510568	      0.89399536	      0.09836627	      0.06128147	      0.89028723	      0.08285152	      0.16805069	      1.03892981	      0.10656287	      0.10250879	      0.10056051	      0.13004831	     -0.04919518	      0.26193253	      0.08078274	     -0.02070936	      0.24502379	      0.07336644	     -0.11855408	      0.35212033	      0.04389354	     -0.04737040	      0.63617377	      1.34572986	      0.01069301	      0.51625873	      1.41966992	      0.21603880	      0.58524109	      1.46367896	     -0.19253947	      0.50349948	      1.22008679	      0.25323387	      0.63246722	      1.23190662	     -0.22862468	      0.44877924	      1.12003223	      0.27078235	      0.60507050	      1.13107947	     -0.27924414	      0.58207581	      0.88597137	      0.28628558	      0.53121246	      0.87125415	      0.32624704	      0.76866486	      0.95745685	     -0.18786916	      0.74739008	      0.92843500	     -0.25503514	      0.98142151	      0.07725431	      0.18476793	      0.98557642	      0.08715538	      0.07396469	      0.28990268	      0.03830840	     -0.12540837	      0.31394614	      0.04087807	     -0.02487727	      0.66904816	      1.60719714	      0.10419785	      0.67932068	      1.61840564	     -0.03452201	      0.59846381	      1.77038672	      0.04555423	    -28.34994867	    230.09167296	     22.91141976	      0.79466182	     -0.00750000	      0.09491946	    142.72564422	    640.60428365	     15.20324780	      0.28825807	     -0.00750000	     -0.05149819	      0.00000000	     -0.06117849	      0.00000000	      0.00000000	      2.22452193	      0.00000000
      3.15000000	      0.59496178	      1.00265740	     -0.00390129	      4.95015355	      0.12560521	      1.80850638	     21.51065057	     -1.46815527	     -2.16815718	    -16.32139291	     -1.36395166	     -0.00025011	      0.00000066	    -20.19423452	      1.57542374	     -1.46947598	    -19.88934779	     15.90129912	      0.00009513	     -0.00000050	    -13.17894521	      3.06000435	     -9.14825657	      0.61621490	      1.04390137	      0.12510062	      0.61766864	      1.02799902	     -0.13538992	      0.42046988	      1.03317932	      0.01213288	      0.67784296	      0.74338580	      0.17504727	      0.75495886	      0.70958716	      0.07755533	      0.71869562	      0.62770276	      0.16376186	      0.48664099	      0.74301666	     -0.17867570	      0.56949634	      0.68298248	     -0.12193987	      0.45508179	      0.63872992	     -0.15759897	      0.71790985	      0.45234430	      0.15657156	      0.80174115	      0.43438901	      0.09963377	      0.75207745	      0.37270770	      0.16552081	      0.35744882	      0.44214490	     -0.14798767	      0.37719351	      0.37587234	     -0.09487935	      0.31993896	      0.41341956	     -0.15340521	      0.74110205	      0.06324298	      0.09549564	      0.87950104	      0.09210016	      0.06126600	      0.87570001	      0.07702257	      0.16781906	      1.02567871	      0.09281210	      0.10190881	      0.09239204	      0.14476649	     -0.04971780	      0.24783012	      0.08278957	     -0.02156520	      0.23066315	      0.07575067	     -0.11871604	      0.33318967	      0.04343339	     -0.04708613	      0.63822028	      1.34731311	      0.01565772	      0.51769550	      1.41976746	      0.22016814	      0.58848926	      1.46571680	     -0.18882446	      0.50495502	      1.21906348	      0.25661810	      0.62987524	      1.23315540	     -0.22511884	      0.45222357	      1.11857690	      0.27324631	      0.60128223	      1.13302515	     -0.27477759	      0.58541571	      0.88380969	      0.28814984	      0.53480096	      0.86974207	      0.32712503	      0.76229675	      0.95339447	     -0.18844078	      0.73982092	      0.92658563	     -0.25553082	      0.96566394	      0.06639969	      0.18267050	      0.97108179	      0.07631711	      0.07350803	      0.27136917	      0.03810442	     -0.12486332	      0.29701633	      0.03995178	     -0.02401694	      0.66961798	      1.60927344	      0.10996243	      0.67965326	      1.62072852	     -0.02985351	      0.59805701	      1.77167578	      0.05070966	    -50.51635782	    329.55440761	     18.34584750	      0.78966376	     -0.00750000	      0.09751087	    133.26465020	    509.43722568	      5.62350425	      0.27133995	     -0.00750000	     -0.04816945	      0.00000000	      0.09329264	      0.00000000	      0.00000000	      1.15901124	      0.00000000
      3.16700000	      0.59898206	      1.00444757	     -0.00299701	      4.96569855	     -0.10933094	      2.39855432	     21.13969374	     -1.35508206	     -2.62422591	    -18.32824443	     -1.60442417	     -0.00025212	      0.00000044	    -19.02716481	      0.96264326	     -0.88233001	    -24.37365986	     14.17916529	      0.00015960	     -0.00000047	    -12.67087373	      3.84843696	     -9.56040817	      0.62257324	      1.04613293	      0.12592706	      0.62013605	      1.02958936	     -0.13419786	      0.42445526	      1.03455591	      0.01421364	      0.68291370	      0.74559308	      0.17629915	      0.75731879	      0.70981543	      0.07883532	      0.72091809	      0.62823486	      0.16526926	      0.49429648	      0.74198425	     -0.17796550	      0.57918353	      0.68311475	     -0.12277119	      0.46493130	      0.63767792	     -0.15778047	      0.71782416	      0.45364465	      0.15839116	      0.79830890	      0.43280215	      0.10081655	      0.74985675	      0.37286929	      0.16696376	      0.36662177	      0.44408252	     -0.15126625	      0.38356857	      0.37434531	     -0.09761640	      0.32808408	      0.41614185	     -0.15490395	      0.72465466	      0.06529496	      0.09633471	      0.86425433	      0.08737029	      0.06170982	      0.86029449	      0.07225400	      0.16823000	      1.01109729	      0.08139696	      0.10182485	      0.08806999	      0.16266389	     -0.05027321	      0.23706679	      0.08706653	     -0.02256588	      0.21788795	      0.07984724	     -0.11874847	      0.31576068	      0.04291600	     -0.04726592	      0.63971411	      1.34967761	      0.01955236	      0.51868787	      1.42041675	      0.22537784	      0.58858167	      1.46870520	     -0.18407379	      0.50813831	      1.21867737	      0.25999274	      0.62866901	      1.23524133	     -0.22169102	      0.45627814	      1.11789294	      0.27577316	      0.59958972	      1.13570471	     -0.27089792	      0.58748358	      0.88224677	      0.28963818	      0.53761060	      0.86877826	      0.32868884	      0.75439417	      0.95016650	     -0.18820381	      0.72939679	      0.92589478	     -0.25589349	      0.94999854	      0.05761286	      0.18138422	      0.95558649	      0.06781415	      0.07332401	      0.25376410	      0.03882534	     -0.12427897	      0.28079688	      0.03996807	     -0.02317934	      0.67073309	      1.61202209	      0.11379395	      0.67983569	      1.62268103	     -0.02565425	      0.59882031	      1.77334314	      0.05500956	    -73.42772916	    456.34497718	     10.86207867	      0.78239668	     -0.00750000	      0.10442768	    100.08189556	    365.12470108	     -2.14960005	      0.26473755	     -0.00750000	     -0.04644031	      0.00000000	     -0.63919304	      0.00000000	      0.00000000	      0.65949159	      0.00000000
      3.18300000	      0.60242184	      1.00667886	     -0.00147312	      5.10591069	     -0.30857632	      2.75437094	     20.49677578	     -1.17047325	     -2.85542916	    -20.04327193	     -1.43288196	     -0.00025374	     -0.00000081	    -17.23801011	      0.44373993	     -0.61572426	    -29.95393641	     11.72182965	      0.00024076	     -0.00000062	    -12.55256944	      4.41756605	     -9.80133344	      0.62724988	      1.04887891	      0.12774294	      0.62250983	      1.03178625	     -0.13266940	      0.42787161	      1.03623340	      0.01640710	      0.68730322	      0.74751080	      0.17874918	      0.75849860	      0.70987512	      0.08043389	      0.72418628	      0.63027209	      0.16603865	      0.50400659	      0.74053778	     -0.17753580	      0.59166595	      0.68417480	     -0.12479528	      0.47833060	      0.63512280	     -0.15856129	      0.71541614	      0.45470398	      0.16207423	      0.79212616	      0.43091806	      0.10285590	      0.74556061	      0.37228552	      0.16994427	      0.38102914	      0.44292072	     -0.15304265	      0.39477744	      0.37324338	     -0.10112029	      0.34039301	      0.41880350	     -0.15694102	      0.70771851	      0.06692619	      0.09735170	      0.84829553	      0.08408997	      0.06237615	      0.84389929	      0.06867735	      0.16913774	      0.99518860	      0.07241694	      0.10223991	      0.08859378	      0.18375087	     -0.05073890	      0.22898938	      0.09356972	     -0.02355792	      0.20772598	      0.08654195	     -0.11892252	      0.30010818	      0.04199370	     -0.04795668	      0.64336859	      1.35314124	      0.02362552	      0.52075610	      1.42163684	      0.22927849	      0.58969269	      1.47243420	     -0.18079677	      0.51218024	      1.21956384	      0.26323251	      0.62908447	      1.23874805	     -0.21889743	      0.46092801	      1.11792407	      0.27833694	      0.59570862	      1.13952466	     -0.26769247	      0.59226141	      0.88292316	      0.29172083	      0.54064484	      0.86756995	      0.33024063	      0.74589099	      0.94719153	     -0.19007556	      0.72040546	      0.92462500	     -0.25792120	      0.93382465	      0.05044781	      0.18281775	      0.93911737	      0.06149206	      0.07345591	      0.23797517	      0.04117323	     -0.12406887	      0.26579581	      0.04160633	     -0.02277719	      0.67171710	      1.61513232	      0.11837852	      0.68012170	      1.62560291	     -0.02115967	      0.59859253	      1.77653430	      0.05919833	    -91.49712778	    563.82399813	     -7.06625619	      0.77313013	     -0.00750000	      0.10932971	     65.08761465	    237.87680648	     -6.40204061	      0.25744560	     -0.00750000	     -0.04525283	      0.00000000	     -0.75701757	      0.00000000	      0.00000000	      0.89598897	      0.00000000
